<?xml version="1.0" encoding="UTF-8"?>
<svg width="130px" height="43px" viewBox="0 0 130 43" version="1.1" xmlns="http://www.w3.org/2000/svg" xmlns:xlink="http://www.w3.org/1999/xlink">
    <title>Group 10</title>
    <g id="Page-1" stroke="none" stroke-width="1" fill="none" fill-rule="evenodd">
        <g id="Artboard-Copy-11" transform="translate(-165.000000, -48.000000)" fill-rule="nonzero">
            <g id="Group-10" transform="translate(165.000000, 48.000000)">
                <path d="M37.6525828,0 L4.18362034,0 C1.88262919,0 1.42108547e-14,1.89539273 1.42108547e-14,4.21198387 L1.42108547e-14,42.1198384 L8.36724064,33.6958707 L37.6525828,33.6958707 C39.953574,33.6958707 41.8362032,31.800478 41.8362032,29.4838869 L41.8362032,4.21198387 C41.8362032,1.89539278 39.953574,0 37.6525828,0 Z" id="Path-Copy-23" fill="#FF6846"></path>
                <g id="Words-Copy" transform="translate(46.311319, 5.656093)" fill="#1E1B68">
                    <path d="M23.9979928,1.04955761 C24.4329446,1.04955761 24.8489855,1.2150284 25.2461154,1.54596999 C25.6432453,1.87691157 25.8418102,2.32604659 25.8418102,2.89337502 C25.8418102,3.06357355 25.8134438,3.25268303 25.756711,3.46070346 L20.1685259,19.9132281 C20.0550602,20.2536251 19.8517675,20.5136507 19.5586478,20.6933047 C19.2655281,20.8729587 18.9582252,20.9722412 18.6367391,20.9911521 C18.315253,20.9911521 17.9984946,20.8965974 17.686464,20.7074879 C17.3744333,20.5183784 17.1333188,20.2441697 16.9631202,19.8848617 L12.7648898,10.3537439 L13.0201876,10.5239425 L8.87869002,19.8848617 C8.70849149,20.2441697 8.4673769,20.5183784 8.15534626,20.7074879 C7.84331562,20.8965974 7.52655724,20.9911521 7.20507113,20.9911521 C6.90249597,20.9722412 6.5999208,20.8729587 6.29734563,20.6933047 C5.99477047,20.5136507 5.78675004,20.2536251 5.67328436,19.9132281 L0.0850992653,3.46070346 C0.0283664218,3.25268303 0,3.06357355 0,2.89337502 C0,2.32604659 0.203292689,1.87691157 0.609878068,1.54596999 C1.01646345,1.2150284 1.43723204,1.04955761 1.87218384,1.04955761 C2.23149185,1.04955761 2.56716117,1.14411234 2.87919181,1.33322182 C3.19122245,1.5223313 3.40397061,1.79654005 3.5174363,2.15584805 L8.02769736,15.8284634 L7.40363608,15.8000969 L11.431668,6.1271471 C11.5829556,5.78675004 11.8004315,5.51726904 12.0840957,5.31870408 C12.3677599,5.12013913 12.689246,5.03031213 13.048554,5.04922308 C13.407862,5.03031213 13.7293481,5.12013913 14.0130124,5.31870408 C14.2966766,5.51726904 14.504697,5.78675004 14.6370736,6.1271471 L18.3247085,15.3746006 L17.8708457,15.6582648 L22.3243739,2.15584805 C22.4378396,1.79654005 22.6553155,1.5223313 22.9768016,1.33322182 C23.2982878,1.14411234 23.6386848,1.04955761 23.9979928,1.04955761 Z" id="Path"></path>
                    <path d="M41.9204139,13.4173175 C41.9204139,14.9680152 41.5752891,16.3343312 40.8850395,17.5162654 C40.1947899,18.6981997 39.2681534,19.6201084 38.1051301,20.2819916 C36.9421068,20.9438747 35.6419792,21.2748163 34.2047471,21.2748163 C32.7675151,21.2748163 31.4673874,20.9438747 30.3043641,20.2819916 C29.1413408,19.6201084 28.2147044,18.6981997 27.5244548,17.5162654 C26.8342052,16.3343312 26.4890804,14.9680152 26.4890804,13.4173175 C26.4890804,11.8666198 26.8342052,10.5003038 27.5244548,9.31836955 C28.2147044,8.13643531 29.1413408,7.20979887 30.3043641,6.53846022 C31.4673874,5.86712157 32.7675151,5.53145225 34.2047471,5.53145225 C35.6419792,5.53145225 36.9421068,5.86712157 38.1051301,6.53846022 C39.2681534,7.20979887 40.1947899,8.13643531 40.8850395,9.31836955 C41.5752891,10.5003038 41.9204139,11.8666198 41.9204139,13.4173175 Z M38.5164432,13.4173175 C38.5164432,12.4528592 38.322606,11.6160497 37.9349316,10.9068892 C37.5472572,10.1977286 37.0272061,9.6445834 36.3747784,9.2474535 C35.7223507,8.85032359 34.9990069,8.65175864 34.2047471,8.65175864 C33.4104873,8.65175864 32.6871436,8.85032359 32.0347159,9.2474535 C31.3822882,9.6445834 30.8622371,10.1977286 30.4745627,10.9068892 C30.0868882,11.6160497 29.893051,12.4528592 29.893051,13.4173175 C29.893051,14.3628649 30.0868882,15.1902189 30.4745627,15.8993794 C30.8622371,16.6085399 31.3822882,17.1616852 32.0347159,17.5588151 C32.6871436,17.955945 33.4104873,18.1545099 34.2047471,18.1545099 C34.9990069,18.1545099 35.7223507,17.955945 36.3747784,17.5588151 C37.0272061,17.1616852 37.5472572,16.6085399 37.9349316,15.8993794 C38.322606,15.1902189 38.5164432,14.3628649 38.5164432,13.4173175 Z" id="Shape"></path>
                    <path d="M46.0851203,20.9911521 C45.5934357,20.9911521 45.1868503,20.8256813 44.8653642,20.4947397 C44.5438781,20.1637981 44.383135,19.752485 44.383135,19.2608004 L44.383135,7.54546819 C44.383135,7.05378355 44.5438781,6.64247043 44.8653642,6.31152885 C45.1868503,5.98058726 45.5934357,5.81511646 46.0851203,5.81511646 C46.576805,5.81511646 46.9833903,5.98058726 47.3048765,6.31152885 C47.6263626,6.64247043 47.7871056,7.05378355 47.7871056,7.54546819 L47.7871056,10.2119118 L47.5885407,8.31136158 C47.7965611,7.85749883 48.0660421,7.45564119 48.3969837,7.10578865 C48.7279253,6.75593612 49.1014165,6.46281643 49.5174574,6.22642958 C49.9334982,5.99004273 50.3779055,5.81511646 50.8506792,5.70165078 C51.3234529,5.58818509 51.7962266,5.53145225 52.2690003,5.53145225 C52.8363287,5.53145225 53.3138301,5.6921953 53.7015046,6.01368142 C54.089179,6.33516753 54.2830162,6.71338649 54.2830162,7.14833829 C54.2830162,7.77239957 54.1222732,8.22153458 53.800787,8.49574332 C53.4793009,8.76995207 53.1294484,8.90705644 52.7512294,8.90705644 C52.3919214,8.90705644 52.0657076,8.84086812 51.7725879,8.70849149 C51.4794682,8.57611485 51.1437989,8.50992653 50.7655799,8.50992653 C50.4251829,8.50992653 50.0800581,8.59029806 49.7302055,8.75104112 C49.380353,8.91178417 49.0588669,9.16235423 48.7657472,9.5027513 C48.4726275,9.84314836 48.2362406,10.2639169 48.0565866,10.7650571 C47.8769326,11.2661972 47.7871056,11.8571643 47.7871056,12.5379584 L47.7871056,19.2608004 C47.7871056,19.752485 47.6263626,20.1637981 47.3048765,20.4947397 C46.9833903,20.8256813 46.576805,20.9911521 46.0851203,20.9911521 Z" id="Path"></path>
                    <path d="M67.9788404,0 C68.470525,0 68.8771104,0.160743057 69.1985965,0.48222917 C69.5200827,0.803715284 69.6808257,1.21975614 69.6808257,1.73035173 L69.6808257,19.2608004 C69.6808257,19.752485 69.5200827,20.1637981 69.1985965,20.4947397 C68.8771104,20.8256813 68.470525,20.9911521 67.9788404,20.9911521 C67.4871558,20.9911521 67.0805704,20.8256813 66.7590843,20.4947397 C66.4375982,20.1637981 66.2768551,19.752485 66.2768551,19.2608004 L66.2768551,17.8708457 L66.9009164,18.1261435 C66.9009164,18.3719858 66.7685397,18.6698333 66.5037865,19.0196858 C66.2390332,19.3695383 65.8797252,19.7146631 65.4258624,20.0550602 C64.9719997,20.3954573 64.4377654,20.6838492 63.8231596,20.9202361 C63.2085538,21.1566229 62.5419429,21.2748163 61.8233269,21.2748163 C60.5184715,21.2748163 59.3365372,20.939147 58.2775242,20.2678084 C57.2185111,19.5964697 56.3817016,18.6698333 55.7670958,17.487899 C55.15249,16.3059648 54.8451871,14.9491043 54.8451871,13.4173175 C54.8451871,11.8666198 55.15249,10.5003038 55.7670958,9.31836955 C56.3817016,8.13643531 57.2090556,7.20979887 58.2491577,6.53846022 C59.2892599,5.86712157 60.4428277,5.53145225 61.7098612,5.53145225 C62.5230319,5.53145225 63.2700144,5.65437341 63.9508085,5.90021573 C64.6316026,6.14605805 65.2225698,6.45808869 65.7237099,6.83630765 C66.22485,7.21452661 66.6125244,7.5974733 66.8867332,7.98514773 C67.1609419,8.37282216 67.2980463,8.69903601 67.2980463,8.96378928 L66.2768551,9.33255276 L66.2768551,1.73035173 C66.2768551,1.23866708 66.4375982,0.827353968 66.7590843,0.496412381 C67.0805704,0.165470794 67.4871558,0 67.9788404,0 Z M62.2488232,18.1545099 C63.0809049,18.1545099 63.8089764,17.9464895 64.4330377,17.5304487 C65.057099,17.1144078 65.5440559,16.5470794 65.8939084,15.8284634 C66.2437609,15.1098473 66.4186872,14.306132 66.4186872,13.4173175 C66.4186872,12.509592 66.2437609,11.6964212 65.8939084,10.9778052 C65.5440559,10.2591892 65.057099,9.69186077 64.4330377,9.27581992 C63.8089764,8.85977907 63.0809049,8.65175864 62.2488232,8.65175864 C61.4356524,8.65175864 60.7170364,8.85977907 60.0929752,9.27581992 C59.4689139,9.69186077 58.981957,10.2591892 58.6321044,10.9778052 C58.2822519,11.6964212 58.1073256,12.509592 58.1073256,13.4173175 C58.1073256,14.306132 58.2822519,15.1098473 58.6321044,15.8284634 C58.981957,16.5470794 59.4689139,17.1144078 60.0929752,17.5304487 C60.7170364,17.9464895 61.4356524,18.1545099 62.2488232,18.1545099 Z" id="Shape"></path>
                    <path d="M71.9733483,18.6367391 C71.7842389,18.3719858 71.6991396,18.0315888 71.7180505,17.6155479 C71.7369615,17.1995071 71.9828038,16.8401991 72.4555775,16.5376239 C72.7581527,16.3485144 73.0796388,16.2681429 73.4200359,16.2965093 C73.7604329,16.3248757 74.0913745,16.499802 74.4128606,16.8212881 C74.9612781,17.3697056 75.538062,17.7952019 76.1432123,18.0977771 C76.7483627,18.4003523 77.5048006,18.5516398 78.4125261,18.5516398 C78.6961903,18.5327289 79.0082209,18.4901793 79.348618,18.4239909 C79.6890151,18.3578026 79.9868625,18.206515 80.2421603,17.9701282 C80.4974581,17.7337413 80.625107,17.3697056 80.625107,16.878021 C80.625107,16.4619801 80.4832749,16.1310385 80.1996107,15.8851962 C79.9159464,15.6393539 79.5424552,15.4313334 79.079137,15.2611349 C78.6158188,15.0909364 78.1004954,14.9301933 77.533167,14.7789057 C76.9469276,14.6087072 76.346505,14.4195977 75.7318992,14.2115773 C75.1172934,14.0035569 74.5546927,13.7340759 74.0440971,13.4031343 C73.5335015,13.0721927 73.1174607,12.6325132 72.7959746,12.0840957 C72.4744885,11.5356782 72.3137454,10.8454286 72.3137454,10.0133469 C72.3137454,9.06779949 72.5784987,8.26408421 73.1080052,7.60220104 C73.6375118,6.94031786 74.3230336,6.42972227 75.1645708,6.07041426 C76.006108,5.71110625 76.8901948,5.53145225 77.8168312,5.53145225 C78.4030706,5.53145225 79.0176764,5.6023683 79.6606486,5.74420041 C80.3036209,5.88603252 80.9182267,6.11296389 81.5044661,6.42499453 C82.0907054,6.73702517 82.5823901,7.14833829 82.97952,7.65893388 C83.1875404,7.9425981 83.3104616,8.28299516 83.3482835,8.68012506 C83.3861054,9.07725497 83.2064514,9.43656298 82.8093215,9.75804909 C82.5256572,9.98498047 82.1947157,10.0842629 81.8164967,10.0558965 C81.4382777,10.0275301 81.1262471,9.8998812 80.8804048,9.67294983 C80.5589187,9.25690897 80.1286946,8.92596739 79.5897326,8.68012506 C79.0507706,8.43428274 78.431437,8.31136158 77.731732,8.31136158 C77.4480677,8.31136158 77.1407648,8.34445574 76.8098233,8.41064406 C76.4788817,8.47683237 76.1904897,8.61866448 75.9446474,8.83614038 C75.6988051,9.05361628 75.5758839,9.39874108 75.5758839,9.87151478 C75.5758839,10.3064666 75.717716,10.6515914 76.0013802,10.9068892 C76.2850445,11.162187 76.6679911,11.3702074 77.1502203,11.5309505 C77.6324495,11.6916935 78.1477728,11.8477088 78.6961903,11.9989964 C79.2635187,12.150284 79.8403026,12.329938 80.426542,12.5379584 C81.0127814,12.7459789 81.5517434,13.0201876 82.0434281,13.3605847 C82.5351127,13.7009817 82.9322426,14.1406613 83.2348178,14.6796233 C83.537393,15.2185853 83.6886805,15.9041071 83.6886805,16.7361888 C83.6886805,17.7006472 83.4050163,18.5232734 82.8376879,19.2040675 C82.2703594,19.8848617 81.5611989,20.400185 80.7102063,20.7500375 C79.8592136,21.0998901 78.98931,21.2748163 78.1004954,21.2748163 C76.9847495,21.2748163 75.8690036,21.0809791 74.7532577,20.6933047 C73.6375118,20.3056303 72.7108753,19.6201084 71.9733483,18.6367391 Z" id="Path"></path>
                </g>
                <g id="42-copy-10" transform="translate(4.880871, 6.507085)" fill="#FFFFFF">
                    <path d="M10.7508739,20.1401595 C10.2781002,20.1401595 9.88097025,19.9746887 9.55948414,19.6437471 C9.23799803,19.3128055 9.07725497,18.9014924 9.07725497,18.4098077 L9.07725497,5.0775895 L9.67294983,5.21942161 L4.19823042,11.9989964 L4.05639831,11.6302329 L14.0981116,11.6302329 C14.5519744,11.6302329 14.9301933,11.7815205 15.2327685,12.0840957 C15.5353437,12.3866708 15.6866312,12.7648898 15.6866312,13.2187525 C15.6866312,13.6537043 15.5353437,14.0177401 15.2327685,14.3108598 C14.9301933,14.6039795 14.5519744,14.7505393 14.0981116,14.7505393 L1.70198531,14.7505393 C1.3048554,14.7505393 0.921908708,14.5897963 0.553145225,14.2683102 C0.184381742,13.946824 -1.22154878e-14,13.5496941 -1.22154878e-14,13.0769204 C-1.22154878e-14,12.6608796 0.141832109,12.2826606 0.425496327,11.9422636 L9.38928561,0.96445834 C9.54057319,0.756437914 9.73913814,0.59096712 9.98498047,0.468045959 C10.2308228,0.345124798 10.5050315,0.283664218 10.8076067,0.283664218 C11.2992913,0.283664218 11.701149,0.449135011 12.0131796,0.780076599 C12.3252103,1.11101819 12.4812256,1.5223313 12.4812256,2.01401595 L12.4812256,18.4098077 C12.4812256,18.9014924 12.3157548,19.3128055 11.9848132,19.6437471 C11.6538716,19.9746887 11.2425585,20.1401595 10.7508739,20.1401595 Z" id="Path"></path>
                    <path d="M28.8718598,17.0198531 C29.3257226,17.0198531 29.7039415,17.1711406 30.0065167,17.4737158 C30.3090919,17.776291 30.4603795,18.1545099 30.4603795,18.6083727 C30.4603795,19.0433245 30.3090919,19.4073602 30.0065167,19.7004799 C29.7039415,19.9935996 29.3257226,20.1401595 28.8718598,20.1401595 L19.2272764,20.1401595 C18.7355918,20.1401595 18.3479174,19.9888719 18.0642531,19.6862967 C17.7805889,19.3837215 17.6387568,18.9960471 17.6387568,18.5232734 C17.6387568,18.0504997 17.8089553,17.6344589 18.1493524,17.2751509 L24.3332324,10.6657746 C25.0329374,9.90933667 25.5860826,9.13398781 25.992668,8.339728 C26.3992534,7.54546819 26.6025461,6.8552186 26.6025461,6.26897921 C26.6025461,5.32343182 26.3283374,4.56226617 25.7799199,3.98548226 C25.2315024,3.40869835 24.5034309,3.1203064 23.5957054,3.1203064 C23.2363974,3.1203064 22.8676339,3.20540566 22.4894149,3.37560419 C22.111196,3.54580272 21.7471602,3.78218957 21.3973077,4.08476474 C21.0474552,4.3873399 20.7212413,4.73719244 20.4186661,5.13432234 C20.1917348,5.43689751 19.9648034,5.62600699 19.737872,5.70165078 C19.5109407,5.77729457 19.3029202,5.81511646 19.1138107,5.81511646 C18.6977699,5.81511646 18.3148232,5.65910114 17.9649707,5.3470705 C17.6151181,5.03503987 17.4401919,4.67100412 17.4401919,4.25496327 C17.4401919,3.93347715 17.5489298,3.62144651 17.7664057,3.31887135 C17.9838816,3.01629618 18.2533626,2.70426554 18.5748487,2.38277943 C19.0476224,1.91000573 19.577129,1.49396488 20.1633684,1.13465687 C20.7496077,0.775348862 21.3547581,0.496412381 21.9788193,0.297847429 C22.6028806,0.0992824762 23.208031,-9.77239027e-14 23.7942703,-9.77239027e-14 C25.0613038,-9.77239027e-14 26.1628666,0.250570059 27.0989585,0.751710177 C28.0350504,1.2528503 28.7583941,1.96201084 29.2689897,2.87919181 C29.7795853,3.79637278 30.0348831,4.87902455 30.0348831,6.1271471 C30.0348831,7.16724924 29.7275802,8.32554479 29.1129744,9.60203377 C28.4983686,10.8785228 27.6710146,12.0746402 26.6309125,13.1903861 L22.8014456,17.2751509 L22.4894149,17.0198531 L28.8718598,17.0198531 Z" id="Path"></path>
                </g>
            </g>
        </g>
    </g>
</svg>